# xmcd
#
# Track frame offsets: 
#        150
#        13315
#        27487
#        38645
#        51840
#        63642
#        75770
#        94780
#        107692
#        114852
#
# Disc length: 1937 seconds
#
# Revision: 2
# Processed by: cddbd v1.5.2PL0 Copyright (c) Steve Scherf et al.
# Submitted via: ExactAudioCopy v0.95b4
#
DISCID=74078f0a
DTITLE=Lee Konitz and Miles Davis - Ezz-Thetic
DYEAR=1952
DGENRE=Jazz
TTITLE0=Odjenar
TTITLE1=Hi Beck
TTITLE2=Yesterdays
TTITLE3=Ezz-Thetic
TTITLE4=Indian Summer
TTITLE5=Duet For Saxophone and Guitar
TTITLE6=Edging Out
TTITLE7=Nocturne
TTITLE8=Compositon For Four Pieces
TTITLE9=A Night In Tunisia
EXTD=YEAR: 1952
EXTT0=
EXTT1=
EXTT2=
EXTT3=
EXTT4=
EXTT5=
EXTT6=
EXTT7=
EXTT8=
EXTT9=
PLAYORDER=
